<?xml version="1.0" standalone="no"?>
<!DOCTYPE svg PUBLIC "-//W3C//DTD SVG 20010904//EN"
 "http://www.w3.org/TR/2001/REC-SVG-20010904/DTD/svg10.dtd">
<svg version="1.0" xmlns="http://www.w3.org/2000/svg"
 width="380.000000pt" height="380.000000pt" viewBox="0 0 380.000000 380.000000"
 preserveAspectRatio="xMidYMid meet">
<metadata>
Created by potrace 1.11, written by Peter Selinger 2001-2013
</metadata>
<g transform="translate(0.000000,380.000000) scale(0.100000,-0.100000)"
fill="#000000" stroke="none">
<path d="M110 3789 c-17 -4 -40 -15 -52 -25 -50 -45 -48 43 -48 -1871 0 -1756
0 -1789 20 -1820 41 -68 -109 -63 1870 -63 1977 0 1835 -5 1875 63 20 31 20
64 21 1820 0 1680 -1 1790 -17 1827 -11 24 -30 45 -51 56 -31 17 -140 18
-1810 18 -977 1 -1791 -2 -1808 -5z"/>
</g>
</svg>
