<svg id="Layer_1" data-name="Layer 1" xmlns="http://www.w3.org/2000/svg" viewBox="0 0 460.9448 147.4791">
  <defs>
    <style>
      .cls-1 {
        fill: none;
        stroke: #ead01e;
        stroke-linecap: round;
        stroke-linejoin: round;
        stroke-width: 5px;
      }
    </style>
  </defs>
  <title>h-logo-yellow</title>
  <g>
    <polyline class="cls-1" points="2.5 67.722 2.5 2.532 20.211 2.532 20.211 62.823 60.154 62.823 60.154 2.532 78.618 2.532 78.618 67.722"/>
    <polyline class="cls-1" points="2.5 79.47 2.5 144.661 20.211 144.661 20.211 84.369 60.154 84.369 60.154 144.661 78.618 144.661 78.618 79.47"/>
    <path class="cls-1" d="M206.2591,183.2925V150.6972H223.97V257.7153s-.7537,15.45,16.2034,18.4644" transform="translate(-107.2921 -148.1657)"/>
    <path class="cls-1" d="M282.0008,183.2925V150.6972H264.29V257.7153s.7537,15.45-16.2034,18.4644" transform="translate(-107.2921 -148.1657)"/>
    <path class="cls-1" d="M206.2591,192.9015V255.81a43.9587,43.9587,0,0,0,3.4253,17.3349c3.99,9.3056,14.8189,19.9873,32.8029,19.5158,25.4121-.6662,32.5893-9.7419,37.0742-22.82a47.4335,47.4335,0,0,0,2.4393-15.3969V192.9015" transform="translate(-107.2921 -148.1657)"/>
    <path class="cls-1" d="M345.5,232.0894s31.2036,20.83,14.5749,37.0739c-10.4563,10.2146-27.93,7.7837-35.5681-4.68a47.5,47.5,0,0,1-4.6407-10.3492l-16.2754.0213s-.4027,34.8238,36.4184,38.6853S382.12,262.4652,382.12,262.4652s5.6964-31.0578-35.806-49.0267" transform="translate(-107.2921 -148.1657)"/>
    <path class="cls-1" d="M340.0088,208.083s-26.5954-11.0872-18.5811-29.21a20.9785,20.9785,0,0,1,17.5337-12.1468c8.3713-.7073,19.1278,2.08,22,19.7919h17.903s2.8482-34.6149-34.9922-35.8208-42.3163,32.5953-42.3163,32.5953-7.3239,25.6485,37.0267,44.3432" transform="translate(-107.2921 -148.1657)"/>
    <polyline class="cls-1" points="339.522 67.722 339.522 63.579 309.006 63.579 309.006 19.636 365.97 19.636 365.97 2.532 290.696 2.532 290.696 67.722"/>
    <polyline class="cls-1" points="339.031 79.47 339.031 83.613 308.514 83.613 308.514 127.557 365.478 127.557 365.478 144.661 290.204 144.661 290.204 79.47"/>
    <polyline class="cls-1" points="416.831 2.532 383.466 2.532 383.466 18.822 411.541 18.822 411.541 144.661 416.831 144.661"/>
    <polyline class="cls-1" points="425.08 2.532 458.445 2.532 458.445 18.822 430.37 18.822 430.37 144.661 425.08 144.661"/>
  </g>
</svg>
