<svg id="Layer_1" data-name="Layer 1" xmlns="http://www.w3.org/2000/svg" viewBox="0 0 24 24">
  <defs>
    <style>
      .cls-1 {
        fill: #e8d772;
      }
    </style>
  </defs>
  <title>iconmonstr-flickr-3</title>
  <path class="cls-1" d="M18.666,12.333A3.333,3.333,0,1,1,15.334,9,3.3357,3.3357,0,0,1,18.666,12.333ZM24,5V19a5,5,0,0,1-5,5H5a5.0005,5.0005,0,0,1-5-5V5A5.0005,5.0005,0,0,1,5,0H19A5,5,0,0,1,24,5Zm-4,7.333a4.6651,4.6651,0,0,0-8.002-3.262,4.667,4.667,0,1,0,0,6.524A4.6651,4.6651,0,0,0,20,12.333Z" transform="translate(0 0)"/>
</svg>
