<svg id="Layer_1" data-name="Layer 1" xmlns="http://www.w3.org/2000/svg" viewBox="0 0 24 24">
  <defs>
    <style>
      .cls-1 {
        fill: #e8d772;
      }
    </style>
  </defs>
  <title>iconmonstr-instagram-1</title>
  <path class="cls-1" d="M11.984,16.815a4.703,4.703,0,1,0-4.706-4.706A4.7108,4.7108,0,0,0,11.984,16.815ZM12,8.631a3.4785,3.4785,0,1,1-3.479,3.478A3.4787,3.4787,0,0,1,12,8.631ZM17.223,9H24V19.278A4.7219,4.7219,0,0,1,19.278,24H4.785A4.776,4.776,0,0,1,0,19.278V9H6.747a6.0481,6.0481,0,0,0-.872,3.109,6.109,6.109,0,0,0,12.218,0A6.0465,6.0465,0,0,0,17.223,9Zm2.055-9H7V5H6V0H5V5H4V.077a4.79,4.79,0,0,0-1,.27V5H2V.898A4.6979,4.6979,0,0,0,0,4.722V8H7.473a6.0873,6.0873,0,0,1,9.022,0H24V4.722A4.7219,4.7219,0,0,0,19.278,0ZM22,5.265A.74.74,0,0,1,21.255,6H18.744A.7394.7394,0,0,1,18,5.265V2.735A.7394.7394,0,0,1,18.744,2h2.511A.74.74,0,0,1,22,2.735Z" transform="translate(0 0)"/>
</svg>
