<svg id="Capa_1" data-name="Capa 1" xmlns="http://www.w3.org/2000/svg" viewBox="0 0 430.117 296.3065">
  <defs>
    <style>
      .cls-1 {
        fill: #e8d772;
      }
    </style>
  </defs>
  <title>twitter-logo</title>
  <path id="Twitter_alt_" data-name="Twitter (alt)" class="cls-1" d="M381.384,198.639c24.157-1.993,40.543-12.975,46.849-27.876-8.714,5.353-35.764,11.189-50.703,5.631-.732-3.51-1.55-6.844-2.353-9.854-11.383-41.798-50.357-75.472-91.194-71.404,3.304-1.334,6.655-2.576,9.996-3.691,4.495-1.61,30.868-5.901,26.715-15.21-3.5-8.188-35.722,6.188-41.789,8.067,8.009-3.012,21.254-8.193,22.673-17.396a63.9662,63.9662,0,0,0-33.622,15.919c3.36-3.617,5.909-8.025,6.45-12.769C241.68,90.963,222.563,133.113,207.092,174c-12.148-11.773-22.915-21.044-32.574-26.192-27.097-14.531-59.496-29.692-110.355-48.572-1.561,16.827,8.322,39.201,36.8,54.08-6.17-.826-17.453,1.017-26.477,3.178,3.675,19.277,15.677,35.159,48.169,42.839-14.849.98-22.523,4.359-29.478,11.642,6.763,13.407,23.266,29.186,52.953,25.947-33.006,14.226-13.458,40.571,13.399,36.642C113.713,320.887,41.479,317.409,0,277.828,108.299,425.4,343.716,365.102,378.799,222.962c26.285.224,41.737-9.105,51.318-19.39C414.973,206.142,393.023,203.486,381.384,198.639Z" transform="translate(0 -66.906)"/>
</svg>
